# xmcd CD database file
# Copyright (C) 1993-1998 Ti Kan
#
# Track frame offsets:
#	150
#	27960
#	46847
#	62475
#	78292
#	99165
#	121602
#	146190
#	172345
#	193015
#
# Disc length: 2866 seconds
#
# Revision: 1
# Processed by: cddbd v1.4b41PL1 Copyright (c) Steve Scherf et al.
# Submitted via: QuintessentialCD v1.0 (c) 1998 Paul Quinn
#
DISCID=7e0b300a
DTITLE=Anders Osbourne - break the chain
DYEAR=1900
DGENRE=
TTITLE0=I'm Back In
TTITLE1=Time
TTITLE2=Right On The Money
TTITLE3=Give It To Me Two Times
TTITLE4=Break The Chain
TTITLE5=Having A Good Time Too
TTITLE6=Now Not Tomorrow
TTITLE7=Real World
TTITLE8=Stoned Me
TTITLE9=Heaven By Seven
EXTD=
EXTT0=
EXTT1=
EXTT2=
EXTT3=
EXTT4=
EXTT5=
EXTT6=
EXTT7=
EXTT8=
EXTT9=
PLAYORDER=
